<svg width="64" height="64" viewBox="0 0 64 64" fill="none" xmlns="http://www.w3.org/2000/svg">
<rect width="64" height="64" rx="32" fill="#29A9BD"/>
<path d="M51.592 37.3862C50.9327 38.5341 49.5218 39.0231 48.2857 38.5159L41.4488 35.7047L41.4481 35.7041C40.3673 35.2514 39.7042 34.1534 39.8239 32.993L40.23 29.0155L40.2458 28.8616L40.1022 28.8077C34.8911 26.8472 29.1396 26.7571 23.8788 28.5273L23.7283 28.5784L23.7435 28.7373L24.1702 32.9923C24.2782 34.0869 23.7048 35.1233 22.7443 35.6129L22.5475 35.7034L15.7132 38.5201C14.4872 39.027 13.0719 38.5434 12.4125 37.3862L12.2143 37.0389L12.2136 37.0382C9.92034 33.0269 10.2878 27.3136 14.7624 24.4062C25.2149 17.6104 38.788 17.6103 49.2407 24.4062C53.7061 27.3138 54.0833 33.0279 51.7902 37.0389L51.592 37.3862Z" fill="white" stroke="#4978B0" stroke-width="0.4"/>
</svg>
