<svg width="64" height="64" viewBox="0 0 64 64" fill="none" xmlns="http://www.w3.org/2000/svg">
<rect width="64" height="64" rx="32" fill="#29A9BD"/>
<path d="M19.7617 16.3566C21.0334 15.9888 22.3879 16.6172 22.9248 17.8407L25.8901 24.6122L25.8901 24.6132C26.3531 25.6896 26.0674 26.94 25.1752 27.6916L22.1201 30.2707L22.0017 30.3704L22.0676 30.5089C24.4543 35.5391 28.529 39.5992 33.543 41.9803L33.6868 42.0481L33.7862 41.9233L36.4351 38.566C37.1177 37.7037 38.2502 37.3564 39.2812 37.6715L39.4856 37.7431L46.3584 40.4644C47.5925 40.9514 48.2747 42.2825 47.9451 43.573L47.8464 43.9605L47.8464 43.9615C46.7096 48.44 42.4765 52.2946 37.2381 51.2776C24.9984 48.9051 15.2347 39.4766 12.4364 27.3269C11.2441 22.1335 14.9421 17.761 19.3779 16.4688L19.7617 16.3566Z" fill="white" stroke="#4978B0" stroke-width="0.4"/>
<rect x="45.7646" y="18.3728" width="3.48622" height="6.97246" rx="1.74311" fill="white" stroke="#4978B0" stroke-width="0.4"/>
<rect x="40.1865" y="15.2351" width="3.48622" height="13.2477" rx="1.74311" fill="white" stroke="#4978B0" stroke-width="0.4"/>
<rect x="34.6089" y="12.7948" width="3.48622" height="18.1284" rx="1.74311" fill="white" stroke="#4978B0" stroke-width="0.4"/>
<rect x="29.0308" y="16.281" width="3.48622" height="11.1559" rx="1.74311" fill="white" stroke="#4978B0" stroke-width="0.4"/>
</svg>
