<svg width="262" height="59" viewBox="0 0 262 59" fill="none" xmlns="http://www.w3.org/2000/svg">
<path d="M78.4304 15.0536C79.1984 15.0536 79.8704 15.3416 80.4464 15.9176C81.0544 16.4616 81.3584 17.1496 81.3584 17.9816V45.7256C81.3584 46.5576 81.0544 47.2616 80.4464 47.8376C79.8384 48.3816 79.1344 48.6536 78.3344 48.6536C77.4384 48.6536 76.7184 48.3816 76.1744 47.8376C75.6304 47.2616 75.3584 46.5576 75.3584 45.7256V17.9816C75.3584 17.1496 75.6464 16.4616 76.2224 15.9176C76.7984 15.3416 77.5344 15.0536 78.4304 15.0536ZM99.6944 15.0536C100.59 15.0536 101.31 15.3416 101.854 15.9176C102.398 16.4616 102.67 17.1496 102.67 17.9816V45.7256C102.67 46.5576 102.382 47.2616 101.806 47.8376C101.262 48.3816 100.526 48.6536 99.5984 48.6536C98.8304 48.6536 98.1424 48.3816 97.5344 47.8376C96.9584 47.2616 96.6704 46.5576 96.6704 45.7256V17.9816C96.6704 17.1496 96.9744 16.4616 97.5824 15.9176C98.1904 15.3416 98.8944 15.0536 99.6944 15.0536ZM78.2864 29.0216H99.6944V34.5416H78.2864V29.0216ZM120.994 49.1336C118.274 49.1336 115.906 48.5736 113.89 47.4536C111.906 46.3016 110.37 44.7496 109.282 42.7976C108.226 40.8456 107.698 38.6376 107.698 36.1736C107.698 33.2936 108.274 30.8456 109.426 28.8296C110.61 26.7816 112.146 25.2136 114.034 24.1256C115.922 23.0376 117.922 22.4936 120.034 22.4936C121.666 22.4936 123.202 22.8296 124.642 23.5016C126.114 24.1736 127.41 25.1016 128.53 26.2856C129.65 27.4376 130.53 28.7816 131.17 30.3176C131.842 31.8536 132.178 33.4856 132.178 35.2136C132.146 35.9816 131.842 36.6056 131.266 37.0856C130.69 37.5656 130.018 37.8056 129.25 37.8056H110.914L109.474 33.0056H127.09L126.034 33.9656V32.6696C125.97 31.7416 125.634 30.9096 125.026 30.1736C124.45 29.4376 123.714 28.8616 122.818 28.4456C121.954 27.9976 121.026 27.7736 120.034 27.7736C119.074 27.7736 118.178 27.9016 117.346 28.1576C116.514 28.4136 115.794 28.8456 115.186 29.4536C114.578 30.0616 114.098 30.8776 113.746 31.9016C113.394 32.9256 113.218 34.2216 113.218 35.7896C113.218 37.5176 113.57 38.9896 114.274 40.2056C115.01 41.3896 115.938 42.3016 117.058 42.9416C118.21 43.5496 119.426 43.8536 120.706 43.8536C121.89 43.8536 122.834 43.7576 123.538 43.5656C124.242 43.3736 124.802 43.1496 125.218 42.8936C125.666 42.6056 126.066 42.3656 126.418 42.1736C126.994 41.8856 127.538 41.7416 128.05 41.7416C128.754 41.7416 129.33 41.9816 129.778 42.4616C130.258 42.9416 130.498 43.5016 130.498 44.1416C130.498 45.0056 130.05 45.7896 129.154 46.4936C128.322 47.1976 127.154 47.8216 125.65 48.3656C124.146 48.8776 122.594 49.1336 120.994 49.1336ZM142.971 45.7256C142.971 46.5576 142.683 47.2616 142.107 47.8376C141.563 48.3816 140.875 48.6536 140.043 48.6536C139.243 48.6536 138.571 48.3816 138.027 47.8376C137.483 47.2616 137.211 46.5576 137.211 45.7256V16.0616C137.211 15.2296 137.483 14.5416 138.027 13.9976C138.603 13.4216 139.307 13.1336 140.139 13.1336C140.971 13.1336 141.643 13.4216 142.155 13.9976C142.699 14.5416 142.971 15.2296 142.971 16.0616V45.7256ZM162.484 22.4936C164.724 22.4936 166.724 23.0696 168.484 24.2216C170.276 25.3416 171.684 26.8936 172.708 28.8776C173.764 30.8616 174.292 33.1656 174.292 35.7896C174.292 38.4136 173.764 40.7336 172.708 42.7496C171.684 44.7336 170.292 46.3016 168.532 47.4536C166.804 48.5736 164.852 49.1336 162.676 49.1336C161.396 49.1336 160.196 48.9256 159.076 48.5096C157.956 48.0936 156.964 47.5656 156.1 46.9256C155.268 46.2856 154.612 45.6456 154.132 45.0056C153.684 44.3336 153.46 43.7736 153.46 43.3256L154.948 42.7016V55.3256C154.948 56.1576 154.676 56.8456 154.132 57.3896C153.588 57.9656 152.9 58.2536 152.068 58.2536C151.236 58.2536 150.548 57.9816 150.004 57.4376C149.46 56.8936 149.188 56.1896 149.188 55.3256V25.9016C149.188 25.0696 149.46 24.3816 150.004 23.8376C150.548 23.2616 151.236 22.9736 152.068 22.9736C152.9 22.9736 153.588 23.2616 154.132 23.8376C154.676 24.3816 154.948 25.0696 154.948 25.9016V28.2536L154.132 27.8216C154.132 27.4056 154.356 26.9096 154.804 26.3336C155.252 25.7256 155.86 25.1336 156.628 24.5576C157.396 23.9496 158.276 23.4536 159.268 23.0696C160.292 22.6856 161.364 22.4936 162.484 22.4936ZM161.764 27.7736C160.356 27.7736 159.124 28.1256 158.068 28.8296C157.012 29.5336 156.18 30.4936 155.572 31.7096C154.996 32.8936 154.708 34.2536 154.708 35.7896C154.708 37.2936 154.996 38.6696 155.572 39.9176C156.18 41.1336 157.012 42.0936 158.068 42.7976C159.124 43.5016 160.356 43.8536 161.764 43.8536C163.172 43.8536 164.388 43.5016 165.412 42.7976C166.468 42.0936 167.284 41.1336 167.86 39.9176C168.468 38.6696 168.772 37.2936 168.772 35.7896C168.772 34.2536 168.468 32.8936 167.86 31.7096C167.284 30.4936 166.468 29.5336 165.412 28.8296C164.388 28.1256 163.172 27.7736 161.764 27.7736ZM202.849 16.6856C203.681 17.1016 204.161 17.7576 204.289 18.6536C204.449 19.5496 204.225 20.3656 203.617 21.1016C203.201 21.6776 202.657 21.9976 201.985 22.0616C201.345 22.1256 200.689 21.9976 200.017 21.6776C199.249 21.3256 198.433 21.0536 197.569 20.8616C196.737 20.6696 195.857 20.5736 194.929 20.5736C193.201 20.5736 191.649 20.8456 190.273 21.3896C188.929 21.9336 187.777 22.7176 186.817 23.7416C185.857 24.7336 185.121 25.9176 184.609 27.2936C184.129 28.6696 183.889 30.1896 183.889 31.8536C183.889 33.8056 184.161 35.5016 184.705 36.9416C185.281 38.3816 186.065 39.5816 187.057 40.5416C188.049 41.5016 189.217 42.2216 190.561 42.7016C191.905 43.1496 193.361 43.3736 194.929 43.3736C195.793 43.3736 196.657 43.2936 197.521 43.1336C198.385 42.9736 199.217 42.6856 200.017 42.2696C200.689 41.9496 201.345 41.8376 201.985 41.9336C202.657 42.0296 203.217 42.3656 203.665 42.9416C204.305 43.7416 204.529 44.5736 204.337 45.4376C204.177 46.2696 203.697 46.8776 202.897 47.2616C202.065 47.6776 201.201 48.0296 200.305 48.3176C199.441 48.5736 198.561 48.7656 197.665 48.8936C196.769 49.0536 195.857 49.1336 194.929 49.1336C192.625 49.1336 190.433 48.7656 188.353 48.0296C186.305 47.2936 184.465 46.2056 182.833 44.7656C181.233 43.3256 179.969 41.5336 179.041 39.3896C178.113 37.2136 177.649 34.7016 177.649 31.8536C177.649 29.3896 178.065 27.1176 178.897 25.0376C179.761 22.9576 180.961 21.1656 182.497 19.6616C184.065 18.1256 185.905 16.9416 188.017 16.1096C190.129 15.2456 192.433 14.8136 194.929 14.8136C196.337 14.8136 197.713 14.9736 199.057 15.2936C200.401 15.6136 201.665 16.0776 202.849 16.6856ZM229.487 22.4936C230.319 22.4936 231.007 22.7656 231.551 23.3096C232.095 23.8536 232.367 24.5576 232.367 25.4216V45.7256C232.367 46.5576 232.095 47.2616 231.551 47.8376C231.007 48.3816 230.319 48.6536 229.487 48.6536C228.655 48.6536 227.967 48.3816 227.423 47.8376C226.879 47.2616 226.607 46.5576 226.607 45.7256V43.3736L227.663 43.8056C227.663 44.2216 227.439 44.7336 226.991 45.3416C226.543 45.9176 225.935 46.4936 225.167 47.0696C224.399 47.6456 223.487 48.1416 222.431 48.5576C221.407 48.9416 220.287 49.1336 219.071 49.1336C216.863 49.1336 214.863 48.5736 213.071 47.4536C211.279 46.3016 209.855 44.7336 208.799 42.7496C207.775 40.7336 207.263 38.4296 207.263 35.8376C207.263 33.2136 207.775 30.9096 208.799 28.9256C209.855 26.9096 211.263 25.3416 213.023 24.2216C214.783 23.0696 216.735 22.4936 218.879 22.4936C220.255 22.4936 221.519 22.7016 222.671 23.1176C223.823 23.5336 224.815 24.0616 225.647 24.7016C226.511 25.3416 227.167 25.9976 227.615 26.6696C228.095 27.3096 228.335 27.8536 228.335 28.3016L226.607 28.9256V25.4216C226.607 24.5896 226.879 23.9016 227.423 23.3576C227.967 22.7816 228.655 22.4936 229.487 22.4936ZM219.791 43.8536C221.199 43.8536 222.431 43.5016 223.487 42.7976C224.543 42.0936 225.359 41.1336 225.935 39.9176C226.543 38.7016 226.847 37.3416 226.847 35.8376C226.847 34.3016 226.543 32.9256 225.935 31.7096C225.359 30.4936 224.543 29.5336 223.487 28.8296C222.431 28.1256 221.199 27.7736 219.791 27.7736C218.415 27.7736 217.199 28.1256 216.143 28.8296C215.087 29.5336 214.255 30.4936 213.647 31.7096C213.071 32.9256 212.783 34.3016 212.783 35.8376C212.783 37.3416 213.071 38.7016 213.647 39.9176C214.255 41.1336 215.087 42.0936 216.143 42.7976C217.199 43.5016 218.415 43.8536 219.791 43.8536ZM244.363 45.7256C244.363 46.5576 244.075 47.2616 243.499 47.8376C242.955 48.3816 242.267 48.6536 241.435 48.6536C240.635 48.6536 239.963 48.3816 239.419 47.8376C238.875 47.2616 238.603 46.5576 238.603 45.7256V16.0616C238.603 15.2296 238.875 14.5416 239.419 13.9976C239.995 13.4216 240.699 13.1336 241.531 13.1336C242.363 13.1336 243.035 13.4216 243.547 13.9976C244.091 14.5416 244.363 15.2296 244.363 16.0616V45.7256ZM256.821 45.7256C256.821 46.5576 256.533 47.2616 255.957 47.8376C255.413 48.3816 254.725 48.6536 253.893 48.6536C253.093 48.6536 252.421 48.3816 251.877 47.8376C251.333 47.2616 251.061 46.5576 251.061 45.7256V16.0616C251.061 15.2296 251.333 14.5416 251.877 13.9976C252.453 13.4216 253.157 13.1336 253.989 13.1336C254.821 13.1336 255.493 13.4216 256.005 13.9976C256.549 14.5416 256.821 15.2296 256.821 16.0616V45.7256Z" fill="#FE7959"/>
<circle cx="61.5773" cy="9.21815" r="9.21815" fill="#FE7959"/>
<circle cx="9.21815" cy="9.21815" r="9.21815" fill="#34465A"/>
<path d="M62.3147 24.7047C66.3875 24.7047 69.6892 28.0063 69.6892 32.0792C69.6892 32.9046 69.5533 33.6982 69.3032 34.4392L69.2628 34.5854C69.2225 34.6891 69.1764 34.7755 69.1498 34.8511C68.8816 35.5117 68.5204 36.1244 68.0825 36.6735C61.2747 47.6119 49.3381 54.9402 35.582 54.9402C21.8211 54.9402 9.87935 47.6077 3.07255 36.663C2.21231 35.3055 1.47485 33.8116 1.47485 32.0792C1.47485 28.0063 4.77654 24.7047 8.84937 24.7047C11.8481 24.7047 14.4285 26.4946 15.5811 29.0642L15.642 29.1639C19.9245 35.9362 27.3471 40.1911 35.582 40.1911C43.778 40.1911 51.2075 35.9336 55.499 29.2158L55.5451 29.1499C56.6784 26.5344 59.2827 24.7047 62.3147 24.7047Z" fill="url(#paint0_linear_4001_446)"/>
<defs>
<linearGradient id="paint0_linear_4001_446" x1="7.55883" y1="25.0734" x2="63.9739" y2="25.0734" gradientUnits="userSpaceOnUse">
<stop stop-color="#34465A"/>
<stop offset="1" stop-color="#FE7959"/>
</linearGradient>
</defs>
</svg>
